<svg width="34" height="35" viewBox="0 0 34 35" fill="none" xmlns="http://www.w3.org/2000/svg">
<path d="M29.75 12.292C29.3647 12.292 29.0304 12.4337 28.747 12.717C28.4637 13.0003 28.322 13.3347 28.322 13.72V25.042C28.322 25.4273 28.186 25.7617 27.914 26.045C27.642 26.3283 27.3134 26.47 26.928 26.47H7.07202C6.68669 26.47 6.35802 26.3283 6.08602 26.045C5.81402 25.7617 5.67802 25.4273 5.67802 25.042V11.476L14.008 19.806C14.552 20.35 15.1867 20.7127 15.912 20.894C16.6374 21.0753 17.3627 21.0753 18.088 20.894C18.8134 20.7127 19.448 20.35 19.992 19.806L25.092 14.74C25.364 14.468 25.5057 14.1337 25.517 13.737C25.5284 13.3403 25.3924 13.0003 25.109 12.717C24.8257 12.4337 24.4857 12.292 24.089 12.292C23.6924 12.292 23.358 12.428 23.086 12.7L18.02 17.8C17.748 18.0947 17.408 18.242 17 18.242C16.592 18.242 16.252 18.0947 15.98 17.8L7.65002 9.46999H18.428C18.768 9.42466 19.057 9.26599 19.295 8.99399C19.533 8.72199 19.652 8.41032 19.652 8.05899C19.652 7.70766 19.533 7.39599 19.295 7.12399C19.057 6.85199 18.768 6.69332 18.428 6.64799H7.07202C6.30136 6.64799 5.59302 6.84066 4.94702 7.22599C4.30102 7.61132 3.78535 8.12699 3.40002 8.77299C3.01469 9.41899 2.82202 10.1273 2.82202 10.898V25.042C2.82202 25.8127 3.01469 26.521 3.40002 27.167C3.78535 27.813 4.30102 28.3287 4.94702 28.714C5.59302 29.0993 6.30136 29.292 7.07202 29.292H26.928C27.6987 29.292 28.407 29.0993 29.053 28.714C29.699 28.3287 30.2147 27.813 30.6 27.167C30.9854 26.521 31.178 25.8127 31.178 25.042V13.72C31.178 13.3347 31.0364 13.0003 30.753 12.717C30.4697 12.4337 30.1354 12.292 29.75 12.292ZM24.072 9.46999H29.75C30.09 9.42466 30.379 9.26599 30.617 8.99399C30.855 8.72199 30.974 8.41032 30.974 8.05899C30.974 7.70766 30.855 7.39599 30.617 7.12399C30.379 6.85199 30.09 6.69332 29.75 6.64799H24.072C23.732 6.69332 23.443 6.85199 23.205 7.12399C22.967 7.39599 22.848 7.70766 22.848 8.05899C22.848 8.41032 22.967 8.72199 23.205 8.99399C23.443 9.26599 23.732 9.42466 24.072 9.46999Z" fill="#17212A"/>
</svg>
