<svg width="24" height="49" viewBox="0 0 24 49" fill="none" xmlns="http://www.w3.org/2000/svg">
<path d="M3.375 32.9912V16.7295C3.375 16.43 3.44987 16.168 3.59961 15.9434C3.74935 15.7188 3.94401 15.5465 4.18359 15.4268L13.6172 24.8604L4.18359 34.2939C3.94401 34.1742 3.74935 34.002 3.59961 33.7773C3.44987 33.5527 3.375 33.2907 3.375 32.9912ZM16.627 27.8701L6.29492 33.7998L14.4258 25.6689L16.627 27.8701ZM19.8164 23.7373C20.2057 24.0368 20.4004 24.4111 20.4004 24.8604C20.4004 25.3096 20.2207 25.6839 19.8613 25.9834L17.6602 27.2412L15.2344 24.8604L17.6602 22.4795L19.8164 23.7373ZM6.29492 15.9209L16.627 21.8506L14.4258 24.0518L6.29492 15.9209Z" fill="#656FE0"/>
</svg>
