<svg width="34" height="35" viewBox="0 0 34 35" fill="none" xmlns="http://www.w3.org/2000/svg">
<path d="M26.928 6.21777H24.072V4.78977C24.0267 4.44977 23.868 4.16077 23.596 3.92277C23.324 3.68477 23.0123 3.56577 22.661 3.56577C22.3097 3.56577 21.998 3.68477 21.726 3.92277C21.454 4.16077 21.2953 4.44977 21.25 4.78977V6.21777H12.75V4.78977C12.7047 4.44977 12.546 4.16077 12.274 3.92277C12.002 3.68477 11.6903 3.56577 11.339 3.56577C10.9877 3.56577 10.676 3.68477 10.404 3.92277C10.132 4.16077 9.97334 4.44977 9.92801 4.78977V6.21777H7.07201C6.30134 6.21777 5.59301 6.41044 4.94701 6.79577C4.30101 7.18111 3.78534 7.69677 3.40001 8.34277C3.01467 8.98877 2.82201 9.69711 2.82201 10.4678V27.4678C2.82201 28.2384 3.01467 28.9468 3.40001 29.5928C3.78534 30.2388 4.30101 30.7544 4.94701 31.1398C5.59301 31.5251 6.30134 31.7178 7.07201 31.7178H26.928C27.6987 31.7178 28.407 31.5251 29.053 31.1398C29.699 30.7544 30.2147 30.2388 30.6 29.5928C30.9853 28.9468 31.178 28.2384 31.178 27.4678V10.4678C31.178 9.69711 30.9853 8.98877 30.6 8.34277C30.2147 7.69677 29.699 7.18111 29.053 6.79577C28.407 6.41044 27.6987 6.21777 26.928 6.21777ZM28.322 27.4678C28.322 27.8531 28.186 28.1818 27.914 28.4538C27.642 28.7258 27.3133 28.8618 26.928 28.8618H7.07201C6.68667 28.8618 6.35801 28.7258 6.08601 28.4538C5.81401 28.1818 5.67801 27.8531 5.67801 27.4678V17.5398H28.322V27.4678ZM28.322 14.7178H5.67801V10.4678C5.67801 10.0824 5.81401 9.74811 6.08601 9.46477C6.35801 9.18144 6.68667 9.03977 7.07201 9.03977H9.92801V10.4678C9.97334 10.8078 10.132 11.0968 10.404 11.3348C10.676 11.5728 10.9877 11.6918 11.339 11.6918C11.6903 11.6918 12.002 11.5728 12.274 11.3348C12.546 11.0968 12.7047 10.8078 12.75 10.4678V9.03977H21.25V10.4678C21.2953 10.8078 21.454 11.0968 21.726 11.3348C21.998 11.5728 22.3097 11.6918 22.661 11.6918C23.0123 11.6918 23.324 11.5728 23.596 11.3348C23.868 11.0968 24.0267 10.8078 24.072 10.4678V9.03977H26.928C27.3133 9.03977 27.642 9.18144 27.914 9.46477C28.186 9.74811 28.322 10.0824 28.322 10.4678V14.7178Z" fill="#656FE0"/>
</svg>
