<svg width="18" height="18" viewBox="0 0 18 18" fill="none" xmlns="http://www.w3.org/2000/svg">
<path d="M5.37891 3.5332C5.37891 3.99023 5.21777 4.37695 4.89551 4.69336C4.57324 5.00977 4.18945 5.16797 3.74414 5.16797C3.28711 5.16797 2.89746 5.00977 2.5752 4.69336C2.25293 4.37695 2.0918 3.99023 2.0918 3.5332C2.0918 3.07617 2.25293 2.68945 2.5752 2.37305C2.89746 2.05664 3.28711 1.89844 3.74414 1.89844C4.18945 1.89844 4.57324 2.05664 4.89551 2.37305C5.21777 2.68945 5.37891 3.07617 5.37891 3.5332ZM6.92578 6.41602V15.5215H9.75586V11.0215C9.75586 10.4238 9.85547 9.88477 10.0547 9.4043C10.2539 8.92383 10.7168 8.68359 11.4434 8.68359C12.1699 8.68359 12.5977 8.95313 12.7266 9.49219C12.8555 10.0312 12.9199 10.5645 12.9199 11.0918V15.5215H15.75V10.5293C15.75 9.29883 15.542 8.26758 15.126 7.43555C14.71 6.60352 13.7871 6.1875 12.3574 6.1875C11.666 6.1875 11.0947 6.34277 10.6436 6.65332C10.1924 6.96387 9.87305 7.30078 9.68555 7.66406H9.63281V6.41602H6.92578ZM2.32031 6.41602H5.15039V15.5215H2.32031V6.41602Z" fill="#2D2E2E"/>
</svg>
