<svg width="21" height="22" viewBox="0 0 21 22" fill="none" xmlns="http://www.w3.org/2000/svg">
<path d="M12.7404 7.93275L9.038 11.656L7.6028 10.2416C7.50573 10.1029 7.37747 9.99889 7.218 9.92955C7.05853 9.86022 6.89213 9.84289 6.7188 9.87755C6.54547 9.91222 6.3964 9.99195 6.2716 10.1168C6.1468 10.2416 6.06707 10.3872 6.0324 10.5536C5.99773 10.72 6.0116 10.8864 6.074 11.0528C6.1364 11.2192 6.23693 11.3509 6.3756 11.448L8.414 13.5072C8.5804 13.6736 8.78493 13.7568 9.0276 13.7568C9.27027 13.7568 9.4748 13.6736 9.6412 13.5072L13.9676 9.15995C14.134 8.99355 14.2172 8.78902 14.2172 8.54635C14.2172 8.30369 14.134 8.09915 13.9676 7.93275C13.8012 7.76635 13.5967 7.68315 13.354 7.68315C13.1113 7.68315 12.9068 7.76635 12.7404 7.93275ZM10.39 2.04635C8.82307 2.04635 7.36707 2.44155 6.022 3.23195C4.70467 3.99462 3.66467 5.03462 2.902 6.35195C2.1116 7.69702 1.7164 9.15302 1.7164 10.72C1.7164 12.2869 2.1116 13.7429 2.902 15.088C3.66467 16.4053 4.70467 17.4453 6.022 18.208C7.36707 18.9984 8.82307 19.3936 10.39 19.3936C11.9569 19.3936 13.4129 18.9984 14.758 18.208C16.0753 17.4453 17.1153 16.4053 17.878 15.088C18.6684 13.7429 19.0636 12.2869 19.0636 10.72C19.0636 9.15302 18.6684 7.69702 17.878 6.35195C17.1153 5.03462 16.0753 3.99462 14.758 3.23195C13.4129 2.44155 11.9569 2.04635 10.39 2.04635ZM10.39 17.6464C9.142 17.6464 7.9772 17.3344 6.8956 16.7104C5.8556 16.0864 5.0236 15.2544 4.3996 14.2144C3.7756 13.1328 3.4636 11.968 3.4636 10.72C3.4636 9.47195 3.7756 8.30715 4.3996 7.22555C5.0236 6.18555 5.8556 5.35355 6.8956 4.72955C7.9772 4.10555 9.142 3.79355 10.39 3.79355C11.638 3.79355 12.8028 4.10555 13.8844 4.72955C14.9244 5.35355 15.7564 6.18555 16.3804 7.22555C17.0044 8.30715 17.3164 9.47195 17.3164 10.72C17.3164 11.968 17.0044 13.1328 16.3804 14.2144C15.7564 15.2544 14.9244 16.0864 13.8844 16.7104C12.8028 17.3344 11.638 17.6464 10.39 17.6464Z" fill="#656FE0"/>
</svg>
