<svg width="34" height="35" viewBox="0 0 34 35" fill="none" xmlns="http://www.w3.org/2000/svg">
<path d="M22.678 2.86177H11.322C10.5513 2.86177 9.84301 3.05444 9.19701 3.43977C8.55101 3.82511 8.03534 4.34077 7.65001 4.98677C7.26467 5.63277 7.07201 6.34111 7.07201 7.11177V26.9678C7.07201 27.7384 7.26467 28.4468 7.65001 29.0928C8.03534 29.7388 8.55101 30.2544 9.19701 30.6398C9.84301 31.0251 10.5513 31.2178 11.322 31.2178H22.678C23.4487 31.2178 24.157 31.0251 24.803 30.6398C25.449 30.2544 25.9647 29.7388 26.35 29.0928C26.7353 28.4468 26.928 27.7384 26.928 26.9678V7.11177C26.928 6.34111 26.7353 5.63277 26.35 4.98677C25.9647 4.34077 25.449 3.82511 24.803 3.43977C24.157 3.05444 23.4487 2.86177 22.678 2.86177ZM24.072 26.9678C24.072 27.3531 23.936 27.6818 23.664 27.9538C23.392 28.2258 23.0633 28.3618 22.678 28.3618H11.322C10.9367 28.3618 10.608 28.2258 10.336 27.9538C10.064 27.6818 9.92801 27.3531 9.92801 26.9678V25.5398H24.072V26.9678ZM24.072 22.7178H9.92801V7.11177C9.92801 6.72644 10.064 6.39777 10.336 6.12577C10.608 5.85377 10.9367 5.71777 11.322 5.71777H22.678C23.0633 5.71777 23.392 5.85377 23.664 6.12577C23.936 6.39777 24.072 6.72644 24.072 7.11177V22.7178Z" fill="#656FE0"/>
</svg>
