<svg width="34" height="35" viewBox="0 0 34 35" fill="none" xmlns="http://www.w3.org/2000/svg">
<path d="M31.178 14.672C31.0873 14.4 30.9286 14.179 30.702 14.009C30.4753 13.839 30.226 13.7426 29.954 13.72L21.896 12.53L18.292 5.21998C18.1786 4.97064 18.003 4.77798 17.765 4.64198C17.527 4.50598 17.2776 4.43798 17.017 4.43798C16.7563 4.43798 16.507 4.50598 16.269 4.64198C16.031 4.77798 15.8553 4.97064 15.742 5.21998L12.104 12.53L4.04597 13.72C3.77397 13.7653 3.53597 13.873 3.33197 14.043C3.12797 14.213 2.98631 14.4226 2.90697 14.672C2.82764 14.9213 2.82197 15.1763 2.88997 15.437C2.95797 15.6976 3.08264 15.9186 3.26397 16.1L9.11197 21.778L7.68397 29.802C7.63864 30.074 7.66697 30.3403 7.76897 30.601C7.87097 30.8616 8.03531 31.0713 8.26197 31.23C8.48864 31.3886 8.73231 31.4793 8.99297 31.502C9.25364 31.5246 9.50864 31.468 9.75797 31.332L17 27.558L24.242 31.332C24.446 31.4453 24.6613 31.502 24.888 31.502C25.1826 31.502 25.449 31.417 25.687 31.247C25.925 31.077 26.095 30.8673 26.197 30.618C26.299 30.3686 26.3273 30.108 26.282 29.836L24.854 21.778L30.702 16.1C30.906 15.9186 31.0533 15.7033 31.144 15.454C31.2346 15.2046 31.246 14.944 31.178 14.672ZM22.44 20.35C22.2813 20.5086 22.1623 20.7013 22.083 20.928C22.0036 21.1546 21.9866 21.3813 22.032 21.608L23.052 27.524L17.748 24.702C17.544 24.5886 17.3173 24.532 17.068 24.532C16.8186 24.532 16.592 24.5886 16.388 24.702L11.084 27.524L12.104 21.608C12.1493 21.3813 12.1323 21.1546 12.053 20.928C11.9736 20.7013 11.8546 20.5086 11.696 20.35L7.44597 16.1L13.396 15.216C13.6226 15.1933 13.8323 15.1083 14.025 14.961C14.2176 14.8136 14.3706 14.638 14.484 14.434L17 9.02798L19.652 14.468C19.7653 14.672 19.9183 14.8476 20.111 14.995C20.3036 15.1423 20.5133 15.2273 20.74 15.25L26.69 16.1L22.44 20.35Z" fill="#17212A"/>
</svg>
