<svg width="51" height="76" viewBox="0 0 51 76" fill="none" xmlns="http://www.w3.org/2000/svg">
<path d="M38.5859 25.3604C39.6276 27.5739 40.0671 29.9339 39.9043 32.4404C39.7415 34.9469 39.0742 37.307 37.9023 39.5205C36.9909 41.083 35.4284 43.264 33.2148 46.0635C32.1081 47.4958 31.2617 48.57 30.6758 49.2861C29.3737 51.109 28.4297 52.7041 27.8438 54.0713C27.7135 54.3317 27.5182 54.7874 27.2578 55.4385L26.5742 57.4893C26.444 57.8799 26.3138 58.1729 26.1836 58.3682C26.0534 58.5635 25.8255 58.6611 25.5 58.6611C25.1745 58.6611 24.8815 58.4984 24.6211 58.1729C24.556 57.9775 24.4583 57.652 24.3281 57.1963C23.6771 55.2432 23.0586 53.7783 22.4727 52.8018C21.8216 51.5648 20.8125 50.0023 19.4453 48.1143L38.5859 25.3604ZM19.543 30.4385L12.6094 38.5439C13.1302 39.6507 13.8138 40.8226 14.6602 42.0596C15.181 42.7757 16.0273 43.8499 17.1992 45.2822L17.5898 45.8682C18.1107 46.4541 18.5339 46.9749 18.8594 47.4307L27.5508 37.1768H27.4531C25.9557 37.6976 24.4746 37.6162 23.0098 36.9326C21.5449 36.249 20.487 35.1585 19.8359 33.6611C19.7057 33.3356 19.6081 32.945 19.543 32.4893C19.4128 31.708 19.4128 31.0244 19.543 30.4385ZM14.1719 22.5283C12.5443 24.6117 11.5677 27.0368 11.2422 29.8037C10.9167 32.5706 11.2422 35.2236 12.2188 37.7627L20.5195 27.8994L14.1719 22.5283ZM30.0898 17.7432L23.4492 25.751L23.5469 25.6533C24.9141 25.1976 26.2975 25.2301 27.6973 25.751C29.097 26.2718 30.1549 27.1833 30.8711 28.4854C31.1966 29.1364 31.3919 29.7549 31.457 30.3408C31.5872 31.1221 31.5872 31.8382 31.457 32.4893L38.1953 24.5791C37.2839 22.9515 36.1445 21.568 34.7773 20.4287C33.4102 19.2894 31.8802 18.4268 30.1875 17.8408L30.0898 17.7432ZM21.1055 27.2158L29.2109 17.5479C27.974 17.2223 26.737 17.0596 25.5 17.0596C23.4818 17.0596 21.5286 17.4665 19.6406 18.2803C17.7526 19.0941 16.125 20.2822 14.7578 21.8447L21.1055 27.2158Z" fill="#656FE0"/>
</svg>
