<svg width="34" height="35" viewBox="0 0 34 35" fill="none" xmlns="http://www.w3.org/2000/svg">
<path d="M29.75 11.3618C29.3647 11.3618 29.0303 11.5035 28.747 11.7868C28.4637 12.0701 28.322 12.4045 28.322 12.7898V24.1118C28.322 24.4971 28.186 24.8315 27.914 25.1148C27.642 25.3981 27.3133 25.5398 26.928 25.5398H7.07201C6.68667 25.5398 6.35801 25.3981 6.08601 25.1148C5.81401 24.8315 5.67801 24.4971 5.67801 24.1118V10.5458L14.008 18.8758C14.552 19.4198 15.1867 19.7825 15.912 19.9638C16.6373 20.1451 17.3627 20.1451 18.088 19.9638C18.8133 19.7825 19.448 19.4198 19.992 18.8758L25.092 13.8098C25.364 13.5378 25.5057 13.2035 25.517 12.8068C25.5283 12.4101 25.3923 12.0701 25.109 11.7868C24.8257 11.5035 24.4857 11.3618 24.089 11.3618C23.6923 11.3618 23.358 11.4978 23.086 11.7698L18.02 16.8698C17.748 17.1645 17.408 17.3118 17 17.3118C16.592 17.3118 16.252 17.1645 15.98 16.8698L7.65001 8.53982H18.428C18.768 8.49448 19.057 8.33582 19.295 8.06382C19.533 7.79182 19.652 7.48015 19.652 7.12882C19.652 6.77748 19.533 6.46582 19.295 6.19382C19.057 5.92182 18.768 5.76315 18.428 5.71782H7.07201C6.30134 5.71782 5.59301 5.91048 4.94701 6.29582C4.30101 6.68115 3.78534 7.19682 3.40001 7.84282C3.01467 8.48882 2.82201 9.19715 2.82201 9.96782V24.1118C2.82201 24.8825 3.01467 25.5908 3.40001 26.2368C3.78534 26.8828 4.30101 27.3985 4.94701 27.7838C5.59301 28.1691 6.30134 28.3618 7.07201 28.3618H26.928C27.6987 28.3618 28.407 28.1691 29.053 27.7838C29.699 27.3985 30.2147 26.8828 30.6 26.2368C30.9853 25.5908 31.178 24.8825 31.178 24.1118V12.7898C31.178 12.4045 31.0363 12.0701 30.753 11.7868C30.4697 11.5035 30.1353 11.3618 29.75 11.3618ZM24.072 8.53982H29.75C30.09 8.49448 30.379 8.33582 30.617 8.06382C30.855 7.79182 30.974 7.48015 30.974 7.12882C30.974 6.77748 30.855 6.46582 30.617 6.19382C30.379 5.92182 30.09 5.76315 29.75 5.71782H24.072C23.732 5.76315 23.443 5.92182 23.205 6.19382C22.967 6.46582 22.848 6.77748 22.848 7.12882C22.848 7.48015 22.967 7.79182 23.205 8.06382C23.443 8.33582 23.732 8.49448 24.072 8.53982Z" fill="#656FE0"/>
</svg>
