<svg width="34" height="35" viewBox="0 0 34 35" fill="none" xmlns="http://www.w3.org/2000/svg">
<path d="M28.56 7.49806C27.54 6.47806 26.35 5.75272 24.99 5.32206C23.63 4.89139 22.2473 4.78939 20.842 5.01606C19.4367 5.24272 18.156 5.78672 17 6.64806C15.776 5.69606 14.4103 5.11239 12.903 4.89706C11.3957 4.68172 9.93368 4.83472 8.51701 5.35606C7.10034 5.87739 5.88768 6.72172 4.87901 7.88906C3.87034 9.05639 3.21301 10.3881 2.90701 11.8841C2.60101 13.3801 2.66901 14.8534 3.11101 16.3041C3.55301 17.7547 4.32934 19.0127 5.44001 20.0781L15.98 30.6181C16.252 30.9127 16.592 31.0601 17 31.0601C17.408 31.0601 17.748 30.9127 18.02 30.6181L28.56 20.0781C29.3987 19.2394 30.0447 18.2761 30.498 17.1881C30.9513 16.1001 31.178 14.9667 31.178 13.7881C31.178 12.6094 30.9513 11.4761 30.498 10.3881C30.0447 9.30006 29.3987 8.33672 28.56 7.49806ZM26.554 18.0721L17 27.6261L7.44601 18.0721C6.58468 17.2107 6.03501 16.1794 5.79701 14.9781C5.55901 13.7767 5.67234 12.6094 6.13701 11.4761C6.60168 10.3427 7.33834 9.43606 8.34701 8.75606C9.35568 8.07606 10.472 7.73606 11.696 7.73606C12.4893 7.73606 13.2543 7.88906 13.991 8.19506C14.7277 8.50106 15.3793 8.93739 15.946 9.50406C16.218 9.77606 16.5523 9.91206 16.949 9.91206C17.3457 9.91206 17.68 9.77606 17.952 9.50406C18.7453 8.82406 19.6407 8.38206 20.638 8.17806C21.6353 7.97406 22.6213 8.01939 23.596 8.31406C24.5707 8.60872 25.4263 9.12439 26.163 9.86106C26.8997 10.5977 27.4097 11.4534 27.693 12.4281C27.9763 13.4027 28.0103 14.3887 27.795 15.3861C27.5797 16.3834 27.132 17.2787 26.452 18.0721H26.554Z" fill="#17212A"/>
</svg>
