<svg width="21" height="21" viewBox="0 0 21 21" fill="none" xmlns="http://www.w3.org/2000/svg">
<path d="M12.32 8.04982L8.76 11.6298L7.38 10.2698C7.28667 10.1365 7.16333 10.0365 7.01 9.96982C6.85667 9.90316 6.69667 9.88649 6.53 9.91982C6.36333 9.95316 6.22 10.0298 6.1 10.1498C5.98 10.2698 5.90333 10.4098 5.87 10.5698C5.83667 10.7298 5.85 10.8898 5.91 11.0498C5.97 11.2098 6.06667 11.3365 6.2 11.4298L8.16 13.4098C8.32 13.5698 8.51667 13.6498 8.75 13.6498C8.98333 13.6498 9.18 13.5698 9.34 13.4098L13.5 9.22982C13.66 9.06982 13.74 8.87316 13.74 8.63982C13.74 8.40649 13.66 8.20982 13.5 8.04982C13.34 7.88982 13.1433 7.80982 12.91 7.80982C12.6767 7.80982 12.48 7.88982 12.32 8.04982ZM10.06 2.38982C8.55333 2.38982 7.15333 2.76982 5.86 3.52982C4.59333 4.26316 3.59333 5.26316 2.86 6.52982C2.1 7.82316 1.72 9.22316 1.72 10.7298C1.72 12.2365 2.1 13.6365 2.86 14.9298C3.59333 16.1965 4.59333 17.1965 5.86 17.9298C7.15333 18.6898 8.55333 19.0698 10.06 19.0698C11.5667 19.0698 12.9667 18.6898 14.26 17.9298C15.5267 17.1965 16.5267 16.1965 17.26 14.9298C18.02 13.6365 18.4 12.2365 18.4 10.7298C18.4 9.22316 18.02 7.82316 17.26 6.52982C16.5267 5.26316 15.5267 4.26316 14.26 3.52982C12.9667 2.76982 11.5667 2.38982 10.06 2.38982ZM10.06 17.3898C8.86 17.3898 7.74 17.0898 6.7 16.4898C5.7 15.8898 4.9 15.0898 4.3 14.0898C3.7 13.0498 3.4 11.9298 3.4 10.7298C3.4 9.52982 3.7 8.40982 4.3 7.36982C4.9 6.36982 5.7 5.56982 6.7 4.96982C7.74 4.36982 8.86 4.06982 10.06 4.06982C11.26 4.06982 12.38 4.36982 13.42 4.96982C14.42 5.56982 15.22 6.36982 15.82 7.36982C16.42 8.40982 16.72 9.52982 16.72 10.7298C16.72 11.9298 16.42 13.0498 15.82 14.0898C15.22 15.0898 14.42 15.8898 13.42 16.4898C12.38 17.0898 11.26 17.3898 10.06 17.3898Z" fill="#656FE0"/>
</svg>
