<svg width="18" height="18" viewBox="0 0 18 18" fill="none" xmlns="http://www.w3.org/2000/svg">
<path d="M11.939 8.65005L7.944 4.65505C7.808 4.51905 7.64083 4.45105 7.4425 4.45105C7.24417 4.45105 7.077 4.51905 6.941 4.65505C6.805 4.79105 6.737 4.95822 6.737 5.15655C6.737 5.35488 6.805 5.52205 6.941 5.65805L10.443 9.19405L6.941 12.6961C6.805 12.8321 6.737 12.9992 6.737 13.1976C6.737 13.3959 6.805 13.5631 6.941 13.6991C7.077 13.8351 7.24417 13.9059 7.4425 13.9116C7.64083 13.9172 7.808 13.8464 7.944 13.6991L11.956 9.70405C12.1147 9.56805 12.194 9.39238 12.194 9.17705C12.194 8.96172 12.1147 8.78605 11.956 8.65005H11.939Z" fill="#656FE0"/>
</svg>
