<svg width="14" height="21" viewBox="0 0 14 21" fill="none" xmlns="http://www.w3.org/2000/svg">
<path d="M3.85547 9.78906C4.27474 10.6094 4.81706 11.3522 5.48242 12.0176C6.14779 12.6829 6.89062 13.2253 7.71094 13.6445L8.99609 12.3594C9.16016 12.1953 9.36068 12.1497 9.59766 12.2227C10.2539 12.4414 10.9466 12.5508 11.6758 12.5508C11.8398 12.5508 11.9766 12.6055 12.0859 12.7148C12.1953 12.8242 12.25 12.9609 12.25 13.125V15.1758C12.25 15.3398 12.1953 15.4766 12.0859 15.5859C11.9766 15.6953 11.8398 15.75 11.6758 15.75C10.3633 15.75 9.09635 15.4993 7.875 14.998C6.65365 14.4967 5.57812 13.7812 4.64844 12.8516C3.71875 11.9219 3.00326 10.8464 2.50195 9.625C2.00065 8.40365 1.75 7.13672 1.75 5.82422C1.75 5.66016 1.80469 5.52344 1.91406 5.41406C2.02344 5.30469 2.16016 5.25 2.32422 5.25H4.375C4.53906 5.25 4.67578 5.30469 4.78516 5.41406C4.89453 5.52344 4.94922 5.66016 4.94922 5.82422C4.94922 6.55339 5.05859 7.24609 5.27734 7.90234C5.35026 8.13932 5.30469 8.33984 5.14062 8.50391L3.85547 9.78906Z" fill="#2D2E2E"/>
</svg>
