<svg width="18" height="18" viewBox="0 0 18 18" fill="none" xmlns="http://www.w3.org/2000/svg">
<path d="M9 5.30859C8.51953 5.30859 8.06836 5.39648 7.64648 5.57227C7.22461 5.75977 6.8584 6.01172 6.54785 6.32812C6.2373 6.64453 5.98828 7.00781 5.80078 7.41797C5.625 7.83984 5.53711 8.29102 5.53711 8.77148C5.53711 9.25195 5.625 9.70312 5.80078 10.125C5.98828 10.5469 6.2373 10.916 6.54785 11.2324C6.8584 11.5488 7.22461 11.7949 7.64648 11.9707C8.06836 12.1582 8.51953 12.252 9 12.252C9.48047 12.252 9.93164 12.1582 10.3535 11.9707C10.7754 11.7949 11.1416 11.5488 11.4521 11.2324C11.7627 10.916 12.0117 10.5469 12.1992 10.125C12.375 9.70312 12.4629 9.25195 12.4629 8.77148C12.4629 8.29102 12.375 7.83984 12.1992 7.41797C12.0117 7.00781 11.7627 6.64453 11.4521 6.32812C11.1416 6.01172 10.7754 5.75977 10.3535 5.57227C9.93164 5.39648 9.48047 5.30859 9 5.30859ZM9 11.0215C8.37891 11.0215 7.84863 10.8018 7.40918 10.3623C6.96973 9.92285 6.75 9.39258 6.75 8.77148C6.75 8.15039 6.96973 7.62012 7.40918 7.18066C7.84863 6.74121 8.37891 6.52148 9 6.52148C9.62109 6.52148 10.1514 6.74121 10.5908 7.18066C11.0303 7.62012 11.25 8.15039 11.25 8.77148C11.25 9.39258 11.0303 9.92285 10.5908 10.3623C10.1514 10.8018 9.62109 11.0215 9 11.0215ZM13.4121 5.18555C13.4121 5.4082 13.333 5.59863 13.1748 5.75684C13.0166 5.91504 12.8262 5.99414 12.6035 5.99414C12.3809 5.99414 12.1904 5.91504 12.0322 5.75684C11.874 5.59863 11.7949 5.4082 11.7949 5.18555C11.7949 4.96289 11.874 4.77246 12.0322 4.61426C12.1904 4.45605 12.3809 4.37695 12.6035 4.37695C12.8262 4.37695 13.0166 4.45605 13.1748 4.61426C13.333 4.77246 13.4121 4.96289 13.4121 5.18555ZM15.3984 4.35938C15.2227 3.90234 14.9648 3.50391 14.625 3.16406C14.2852 2.82422 13.8926 2.56641 13.4473 2.39062H13.4297C13.1836 2.29687 12.9229 2.2207 12.6475 2.16211C12.3721 2.10352 12.0879 2.07422 11.7949 2.07422H11.7773C11.4258 2.05078 11.1035 2.03613 10.8105 2.03027C10.5176 2.02441 9.91406 2.02148 9 2.02148C8.08594 2.02148 7.48242 2.02441 7.18945 2.03027C6.89648 2.03613 6.57422 2.05078 6.22266 2.07422C5.92969 2.07422 5.64258 2.10352 5.36133 2.16211C5.08008 2.2207 4.81055 2.29687 4.55273 2.39062H4.58789C4.13086 2.56641 3.73242 2.82422 3.39258 3.16406C3.05273 3.50391 2.79492 3.89648 2.61914 4.3418L2.60156 4.35938C2.50781 4.60547 2.43457 4.86621 2.38184 5.1416C2.3291 5.41699 2.29688 5.70117 2.28516 5.99414C2.27344 6.35742 2.26465 6.68262 2.25879 6.96973C2.25293 7.25684 2.25 7.85742 2.25 8.77148C2.25 9.69727 2.25293 10.3037 2.25879 10.5908C2.26465 10.8779 2.27344 11.2031 2.28516 11.5664C2.29688 11.8477 2.3291 12.126 2.38184 12.4014C2.43457 12.6768 2.50781 12.9434 2.60156 13.2012C2.78906 13.6582 3.05273 14.0566 3.39258 14.3965C3.73242 14.7363 4.11914 14.9941 4.55273 15.1699H4.58789C4.82227 15.2754 5.07715 15.3574 5.35254 15.416C5.62793 15.4746 5.91211 15.5098 6.20508 15.5215H6.22266C6.58594 15.5332 6.91113 15.542 7.19824 15.5479C7.48535 15.5537 8.08594 15.5566 9 15.5566C9.91406 15.5566 10.5176 15.5537 10.8105 15.5479C11.1035 15.542 11.4316 15.5332 11.7949 15.5215C12.0879 15.5098 12.375 15.4775 12.6562 15.4248C12.9375 15.3721 13.207 15.293 13.4648 15.1875L13.4297 15.2051C13.8867 15.0176 14.2852 14.7568 14.625 14.4229C14.9648 14.0889 15.2227 13.6992 15.3984 13.2539V13.2188C15.5039 12.9609 15.583 12.6943 15.6357 12.4189C15.6885 12.1436 15.7148 11.8652 15.7148 11.584C15.7266 11.2207 15.7354 10.8955 15.7412 10.6084C15.7471 10.3213 15.75 9.7207 15.75 8.80664C15.75 7.89258 15.75 7.28906 15.75 6.99609C15.75 6.70313 15.7383 6.38086 15.7148 6.0293C15.7148 5.72461 15.6855 5.42871 15.627 5.1416C15.5684 4.85449 15.4863 4.58203 15.3809 4.32422L15.3984 4.35938ZM14.4844 11.5137C14.4844 11.7363 14.4639 11.9561 14.4229 12.1729C14.3818 12.3896 14.3203 12.5977 14.2383 12.7969L14.2559 12.7793C14.1387 13.0723 13.9688 13.3301 13.7461 13.5527C13.5234 13.7754 13.2715 13.9395 12.9902 14.0449L12.9727 14.0625C12.7852 14.1328 12.5859 14.1885 12.375 14.2295C12.1641 14.2705 11.9473 14.291 11.7246 14.291C11.3613 14.3027 11.042 14.3115 10.7666 14.3174C10.4912 14.3232 9.89648 14.3262 8.98242 14.3262C8.06836 14.3262 7.47363 14.3262 7.19824 14.3262C6.92285 14.3262 6.60352 14.3145 6.24023 14.291C6.00586 14.291 5.7832 14.2705 5.57227 14.2295C5.36133 14.1885 5.15625 14.127 4.95703 14.0449L4.97461 14.0625C4.68164 13.9453 4.42383 13.7754 4.20117 13.5527C3.97852 13.3301 3.80859 13.0781 3.69141 12.7969V12.7793C3.62109 12.5918 3.56543 12.3926 3.52441 12.1816C3.4834 11.9707 3.46289 11.7539 3.46289 11.5312V11.5137C3.43945 11.1621 3.42773 10.8457 3.42773 10.5645C3.42773 10.2832 3.42773 9.69141 3.42773 8.78906C3.42773 7.875 3.42773 7.28027 3.42773 7.00488C3.42773 6.72949 3.43945 6.41016 3.46289 6.04688C3.46289 5.8125 3.4834 5.58691 3.52441 5.37012C3.56543 5.15332 3.62695 4.94531 3.70898 4.74609L3.69141 4.78125C3.80859 4.47656 3.97852 4.21289 4.20117 3.99023C4.42383 3.76758 4.68164 3.60352 4.97461 3.49805C5.16211 3.42773 5.36133 3.37207 5.57227 3.33105C5.7832 3.29004 6.00586 3.26367 6.24023 3.25195C6.5918 3.24023 6.9082 3.23145 7.18945 3.22559C7.4707 3.21973 8.06836 3.2168 8.98242 3.2168C9.89648 3.2168 10.4912 3.21973 10.7666 3.22559C11.042 3.23145 11.3613 3.24023 11.7246 3.25195C11.9473 3.26367 12.1641 3.29004 12.375 3.33105C12.5859 3.37207 12.791 3.42773 12.9902 3.49805H12.9727C13.2656 3.61523 13.5234 3.78223 13.7461 3.99902C13.9688 4.21582 14.1387 4.4707 14.2559 4.76367V4.78125C14.3262 4.95703 14.3818 5.15332 14.4229 5.37012C14.4639 5.58691 14.4844 5.80664 14.4844 6.0293C14.4961 6.38086 14.5049 6.69727 14.5107 6.97852C14.5166 7.25977 14.5195 7.85742 14.5195 8.77148C14.5195 9.68555 14.5195 10.2803 14.5195 10.5557C14.5195 10.8311 14.5137 11.1504 14.502 11.5137H14.4844Z" fill="#2D2E2E"/>
</svg>
