<svg width="16" height="26" viewBox="0 0 16 26" fill="none" xmlns="http://www.w3.org/2000/svg">
<path d="M8 19.0586L7.03125 18.1836C5.59375 16.8919 4.59375 15.9544 4.03125 15.3711C3.13542 14.4544 2.47917 13.6419 2.0625 12.9336C1.58333 12.1211 1.34375 11.3086 1.34375 10.4961C1.34375 9.82943 1.50521 9.21484 1.82812 8.65234C2.15104 8.08984 2.59375 7.64714 3.15625 7.32422C3.71875 7.0013 4.33333 6.83984 5 6.83984C5.58333 6.83984 6.13542 6.96484 6.65625 7.21484C7.17708 7.46484 7.625 7.79818 8 8.21484C8.375 7.79818 8.82292 7.46484 9.34375 7.21484C9.86458 6.96484 10.4167 6.83984 11 6.83984C11.6667 6.83984 12.2812 7.0013 12.8438 7.32422C13.4062 7.64714 13.849 8.08984 14.1719 8.65234C14.4948 9.21484 14.6562 9.82943 14.6562 10.4961C14.6562 11.3086 14.4167 12.1211 13.9375 12.9336C13.5208 13.6419 12.8646 14.4544 11.9688 15.3711C11.4062 15.9544 10.4062 16.8919 8.96875 18.1836L8 19.0586Z" fill="#DA3746"/>
</svg>
