<svg width="34" height="35" viewBox="0 0 34 35" fill="none" xmlns="http://www.w3.org/2000/svg">
<path d="M31.178 1.96769H21.25C20.4113 1.96769 19.6747 2.23402 19.04 2.76669C18.4053 3.29935 18.0087 3.97369 17.85 4.78969L16.524 11.9297C16.4333 12.4284 16.4503 12.9327 16.575 13.4427C16.6997 13.9527 16.932 14.4004 17.272 14.7857C17.612 15.171 18.0143 15.4714 18.479 15.6867C18.9437 15.902 19.4367 16.0097 19.958 16.0097H24.072L23.732 16.9617C23.46 17.6644 23.3693 18.3897 23.46 19.1377C23.5507 19.8857 23.8057 20.5714 24.225 21.1947C24.6443 21.818 25.1883 22.3054 25.857 22.6567C26.5257 23.008 27.234 23.195 27.982 23.2177C28.254 23.2177 28.509 23.1384 28.747 22.9797C28.985 22.821 29.1607 22.617 29.274 22.3677L32.47 15.1937C32.538 15.035 32.572 14.8764 32.572 14.7177V3.36169C32.572 2.97635 32.436 2.64769 32.164 2.37569C31.892 2.10369 31.5633 1.96769 31.178 1.96769ZM29.75 14.3097L27.166 20.1577C26.9167 20.0217 26.7013 19.8347 26.52 19.5967C26.3387 19.3587 26.231 19.0924 26.197 18.7977C26.163 18.503 26.2027 18.2197 26.316 17.9477L26.86 16.5537C26.996 16.191 27.0413 15.8057 26.996 15.3977C26.9507 14.9897 26.8147 14.627 26.588 14.3097C26.3613 13.9924 26.0723 13.743 25.721 13.5617C25.3697 13.3804 24.99 13.2897 24.582 13.2897H19.924C19.72 13.2897 19.5557 13.2104 19.431 13.0517C19.3063 12.893 19.2553 12.723 19.278 12.5417L20.604 5.46969C20.5813 5.28835 20.638 5.12402 20.774 4.97669C20.91 4.82935 21.0687 4.76702 21.25 4.78969H29.75V14.3097ZM14.076 19.0357H9.99599L10.336 18.0837C10.5853 17.381 10.6647 16.6557 10.574 15.9077C10.4833 15.1597 10.2227 14.474 9.79199 13.8507C9.36133 13.2274 8.81166 12.74 8.14299 12.3887C7.47433 12.0374 6.76599 11.8617 6.01799 11.8617C5.74599 11.8617 5.49099 11.941 5.25299 12.0997C5.01499 12.2584 4.83933 12.4624 4.72599 12.7117L1.52999 19.8857C1.46199 20.067 1.42799 20.2484 1.42799 20.4297V31.7857C1.42799 32.171 1.56399 32.4997 1.83599 32.7717C2.10799 33.0437 2.43666 33.1797 2.82199 33.1797H12.75C13.5887 33.1797 14.3253 32.9134 14.96 32.3807C15.5947 31.848 15.9913 31.1737 16.15 30.3577L17.476 23.2857C17.5667 22.787 17.5497 22.2827 17.425 21.7727C17.3003 21.2627 17.0737 20.8094 16.745 20.4127C16.4163 20.016 16.0197 19.693 15.555 19.4437C15.0903 19.1944 14.5973 19.0584 14.076 19.0357ZM13.396 29.7797C13.3733 29.9384 13.2997 30.063 13.175 30.1537C13.0503 30.2444 12.9087 30.2897 12.75 30.2897H4.24999V20.7697L6.83399 14.8877C7.10599 15.0237 7.32133 15.2107 7.47999 15.4487C7.63866 15.6867 7.74066 15.953 7.78599 16.2477C7.83133 16.5424 7.79733 16.8257 7.68399 17.0977L7.13999 18.5257C7.00399 18.8884 6.95866 19.2737 7.00399 19.6817C7.04933 20.0897 7.18533 20.458 7.41199 20.7867C7.63866 21.1154 7.92766 21.3704 8.27899 21.5517C8.63033 21.733 9.00999 21.8237 9.41799 21.8237H14.076C14.28 21.801 14.4443 21.869 14.569 22.0277C14.6937 22.1864 14.7333 22.3677 14.688 22.5717L13.396 29.7797Z" fill="#656FE0"/>
</svg>
