<svg width="51" height="76" viewBox="0 0 51 76" fill="none" xmlns="http://www.w3.org/2000/svg">
<path d="M42.1992 29.5596L25.5 39.9111L8.80078 29.5596V25.3604L25.5 35.8096L42.1992 25.3604V29.5596ZM42.1992 21.1611H8.80078C7.69401 21.1611 6.73372 21.568 5.91992 22.3818C5.10612 23.1956 4.69922 24.1885 4.69922 25.3604V50.3604C4.69922 51.5322 5.10612 52.5251 5.91992 53.3389C6.73372 54.1527 7.69401 54.5596 8.80078 54.5596H42.1992C43.306 54.5596 44.2663 54.1527 45.0801 53.3389C45.8939 52.5251 46.3008 51.5322 46.3008 50.3604V25.3604C46.3008 24.1885 45.8939 23.1956 45.0801 22.3818C44.2663 21.568 43.306 21.1611 42.1992 21.1611Z" fill="#656FE0"/>
</svg>
