<svg width="24" height="49" viewBox="0 0 24 49" fill="none" xmlns="http://www.w3.org/2000/svg">
<path d="M18.6934 16.2354C19.2324 16.2354 19.6891 16.4225 20.0635 16.7969C20.4378 17.1712 20.625 17.6279 20.625 18.167V31.5537C20.625 32.0928 20.4378 32.5495 20.0635 32.9238C19.6891 33.2982 19.2324 33.4854 18.6934 33.4854H5.30664C4.76758 33.4854 4.31087 33.2982 3.93652 32.9238C3.56217 32.5495 3.375 32.0928 3.375 31.5537V18.167C3.375 17.6279 3.56217 17.1712 3.93652 16.7969C4.31087 16.4225 4.76758 16.2354 5.30664 16.2354H18.6934ZM18.2441 31.1045V26.0283C18.2441 25.1598 17.9372 24.4186 17.3232 23.8047C16.7093 23.1908 15.9681 22.8838 15.0996 22.8838C14.6803 22.8838 14.2611 23.0036 13.8418 23.2432C13.4225 23.4827 13.1081 23.7822 12.8984 24.1416V23.0635H10.2031V31.1045H12.8984V26.3428C12.8984 25.9834 13.0257 25.6764 13.2803 25.4219C13.5348 25.1673 13.8493 25.04 14.2236 25.04C14.598 25.04 14.9124 25.1673 15.167 25.4219C15.4215 25.6764 15.5488 25.9834 15.5488 26.3428V31.1045H18.2441ZM7.10352 21.5811C7.55273 21.5811 7.93457 21.4238 8.24902 21.1094C8.56348 20.7949 8.7207 20.4131 8.7207 19.9639C8.7207 19.5146 8.56348 19.1328 8.24902 18.8184C7.93457 18.5039 7.55273 18.3467 7.10352 18.3467C6.6543 18.3467 6.27246 18.5039 5.95801 18.8184C5.64355 19.1328 5.48633 19.5146 5.48633 19.9639C5.48633 20.4131 5.64355 20.7949 5.95801 21.1094C6.27246 21.4238 6.6543 21.5811 7.10352 21.5811ZM8.40625 31.1045V23.0635H5.75586V31.1045H8.40625Z" fill="#656FE0"/>
</svg>
