<svg width="34" height="35" viewBox="0 0 34 35" fill="none" xmlns="http://www.w3.org/2000/svg">
<path d="M28.152 12.7118C28.0387 12.4624 27.8743 12.2641 27.659 12.1168C27.4437 11.9694 27.2 11.8844 26.928 11.8618H20.434L22.236 5.16377C22.3493 4.71044 22.27 4.29677 21.998 3.92277C21.726 3.54877 21.352 3.36177 20.876 3.36177H10.948C10.608 3.3391 10.3077 3.42977 10.047 3.63377C9.78634 3.83777 9.61067 4.09844 9.52001 4.41577L5.746 18.5938C5.63267 19.0471 5.71767 19.4551 6.001 19.8178C6.28434 20.1804 6.65267 20.3618 7.106 20.3618H12.58L10.03 29.9158C9.96201 30.2331 9.99034 30.5391 10.115 30.8338C10.2397 31.1284 10.4437 31.3494 10.727 31.4968C11.0103 31.6441 11.3107 31.6951 11.628 31.6498C11.9453 31.6044 12.2173 31.4684 12.444 31.2418L27.88 14.2418C28.0613 14.0378 28.1803 13.7941 28.237 13.5108C28.2937 13.2274 28.2653 12.9611 28.152 12.7118ZM14.28 25.0198L15.81 19.3418C15.9233 18.8884 15.8383 18.4804 15.555 18.1178C15.2717 17.7551 14.9033 17.5738 14.45 17.5738H9.01001L12.036 6.21777H19.006L17.204 12.9158C17.068 13.3691 17.153 13.7884 17.459 14.1738C17.765 14.5591 18.156 14.7404 18.632 14.7178H23.698L14.28 25.0198Z" fill="#656FE0"/>
</svg>
