<svg width="24" height="49" viewBox="0 0 24 49" fill="none" xmlns="http://www.w3.org/2000/svg">
<path d="M12 15.3369C10.263 15.3369 8.66081 15.7637 7.19336 16.6172C5.72591 17.4707 4.56543 18.6312 3.71191 20.0986C2.8584 21.5661 2.43164 23.1683 2.43164 24.9053C2.43164 26.4925 2.78353 27.9674 3.4873 29.3301C4.19108 30.6927 5.1569 31.8232 6.38477 32.7217C7.61263 33.6201 8.99023 34.1742 10.5176 34.3838V27.6904H8.0918V24.9053H10.5176V22.7939C10.5176 21.626 10.8395 20.7126 11.4834 20.0537C12.1273 19.3949 13.0033 19.0654 14.1113 19.0654C14.8301 19.0654 15.5488 19.1253 16.2676 19.2451V21.626H15.0547C14.5156 21.626 14.1113 21.7757 13.8418 22.0752C13.6022 22.3447 13.4824 22.6891 13.4824 23.1084V24.9053H16.1777L15.7285 27.6904H13.4824V34.3838C15.0397 34.1442 16.4323 33.5752 17.6602 32.6768C18.888 31.7783 19.8464 30.6478 20.5352 29.2852C21.224 27.9225 21.5684 26.4626 21.5684 24.9053C21.5684 23.1683 21.1416 21.5661 20.2881 20.0986C19.4346 18.6312 18.2741 17.4707 16.8066 16.6172C15.3392 15.7637 13.737 15.3369 12 15.3369Z" fill="#656FE0"/>
</svg>
