<svg width="34" height="35" viewBox="0 0 34 35" fill="none" xmlns="http://www.w3.org/2000/svg">
<path d="M17.442 17.3458C18.2127 16.6885 18.802 15.9008 19.21 14.9828C19.618 14.0648 19.822 13.0958 19.822 12.0758C19.822 10.7838 19.5047 9.59949 18.87 8.52283C18.2353 7.44616 17.3797 6.59049 16.303 5.95582C15.2263 5.32116 14.042 5.00382 12.75 5.00382C11.458 5.00382 10.2737 5.32116 9.19699 5.95582C8.12033 6.59049 7.26466 7.44616 6.62999 8.52283C5.99533 9.59949 5.67799 10.7838 5.67799 12.0758C5.67799 13.0958 5.88199 14.0648 6.28999 14.9828C6.69799 15.9008 7.28733 16.6885 8.05799 17.3458C6.04066 18.2752 4.43133 19.6692 3.22999 21.5278C2.02866 23.3865 1.42799 25.4265 1.42799 27.6478C1.47333 27.9878 1.63199 28.2768 1.90399 28.5148C2.17599 28.7528 2.48766 28.8718 2.83899 28.8718C3.19033 28.8718 3.50199 28.7528 3.77399 28.5148C4.04599 28.2768 4.20466 27.9878 4.24999 27.6478C4.24999 26.1065 4.62966 24.6842 5.38899 23.3808C6.14833 22.0775 7.17966 21.0462 8.48299 20.2868C9.78633 19.5275 11.2087 19.1478 12.75 19.1478C14.2913 19.1478 15.7137 19.5275 17.017 20.2868C18.3203 21.0462 19.3517 22.0775 20.111 23.3808C20.8703 24.6842 21.25 26.1065 21.25 27.6478C21.2953 27.9878 21.454 28.2768 21.726 28.5148C21.998 28.7528 22.3097 28.8718 22.661 28.8718C23.0123 28.8718 23.324 28.7528 23.596 28.5148C23.868 28.2768 24.0267 27.9878 24.072 27.6478C24.072 25.4265 23.4713 23.3865 22.27 21.5278C21.0687 19.6692 19.4593 18.2752 17.442 17.3458ZM12.75 16.3258C11.9793 16.3258 11.271 16.1332 10.625 15.7478C9.97899 15.3625 9.46333 14.8468 9.07799 14.2008C8.69266 13.5548 8.49999 12.8465 8.49999 12.0758C8.49999 11.3052 8.69266 10.5968 9.07799 9.95083C9.46333 9.30483 9.97899 8.78916 10.625 8.40383C11.271 8.01849 11.9793 7.82583 12.75 7.82583C13.5207 7.82583 14.229 8.01849 14.875 8.40383C15.521 8.78916 16.0367 9.30483 16.422 9.95083C16.8073 10.5968 17 11.3052 17 12.0758C17 12.8465 16.8073 13.5548 16.422 14.2008C16.0367 14.8468 15.521 15.3625 14.875 15.7478C14.229 16.1332 13.5207 16.3258 12.75 16.3258ZM26.554 16.7678C27.4833 15.7252 28.05 14.5182 28.254 13.1468C28.458 11.7755 28.2767 10.4495 27.71 9.16883C27.1433 7.88816 26.2707 6.87382 25.092 6.12582C23.9133 5.37782 22.6327 5.00382 21.25 5.00382C20.91 5.04916 20.621 5.20782 20.383 5.47982C20.145 5.75182 20.026 6.06349 20.026 6.41482C20.026 6.76616 20.145 7.07782 20.383 7.34983C20.621 7.62183 20.91 7.78049 21.25 7.82583C22.0207 7.82583 22.729 8.01849 23.375 8.40383C24.021 8.78916 24.5367 9.30483 24.922 9.95083C25.3073 10.5968 25.5 11.2995 25.5 12.0588C25.5 12.8182 25.313 13.5265 24.939 14.1838C24.565 14.8412 24.0493 15.3625 23.392 15.7478C23.188 15.8612 23.018 16.0255 22.882 16.2408C22.746 16.4562 22.678 16.6885 22.678 16.9378C22.678 17.1872 22.729 17.4195 22.831 17.6348C22.933 17.8502 23.086 18.0258 23.29 18.1618L24.038 18.6378C25.7833 19.4538 27.166 20.6778 28.186 22.3098C29.206 23.9418 29.716 25.7212 29.716 27.6478C29.7613 27.9878 29.92 28.2768 30.192 28.5148C30.464 28.7528 30.7757 28.8718 31.127 28.8718C31.4783 28.8718 31.79 28.7528 32.062 28.5148C32.334 28.2768 32.4927 27.9878 32.538 27.6478C32.538 25.4492 32.0053 23.3865 30.94 21.4598C29.8747 19.5332 28.4127 17.9805 26.554 16.8018V16.7678Z" fill="#656FE0"/>
</svg>
