<svg width="15" height="21" viewBox="0 0 15 21" fill="none" xmlns="http://www.w3.org/2000/svg">
<path d="M12.6173 7.16406L7.33997 3.88281L2.06262 7.16406C1.89856 7.27344 1.7664 7.41471 1.66614 7.58789C1.56588 7.76107 1.51575 7.95703 1.51575 8.17578V14C1.51575 14.3281 1.62968 14.6061 1.85754 14.834C2.08541 15.0618 2.35429 15.1758 2.66418 15.1758H12.0157C12.3256 15.1758 12.5945 15.0618 12.8224 14.834C13.0503 14.6061 13.1642 14.3281 13.1642 14V8.17578C13.1642 7.95703 13.1141 7.76107 13.0138 7.58789C12.9135 7.41471 12.7814 7.27344 12.6173 7.16406ZM12.0157 14H2.66418V9.32422L7.33997 12.25L12.0157 9.32422V14ZM7.33997 11.0742L2.66418 8.17578L7.33997 5.25L12.0157 8.17578L7.33997 11.0742Z" fill="#17212A"/>
</svg>
