<svg width="51" height="76" viewBox="0 0 51 76" fill="none" xmlns="http://www.w3.org/2000/svg">
<path d="M14.2695 35.3213C15.7669 38.251 17.7038 40.904 20.0801 43.2803C22.4564 45.6566 25.1094 47.5934 28.0391 49.0908L32.6289 44.501C33.2148 43.915 33.931 43.7523 34.7773 44.0127C37.1211 44.7939 39.5951 45.1846 42.1992 45.1846C42.7852 45.1846 43.2734 45.3799 43.6641 45.7705C44.0547 46.1611 44.25 46.6494 44.25 47.2354V54.5596C44.25 55.1455 44.0547 55.6338 43.6641 56.0244C43.2734 56.415 42.7852 56.6104 42.1992 56.6104C37.5117 56.6104 32.987 55.7152 28.625 53.9248C24.263 52.1344 20.4219 49.5791 17.1016 46.2588C13.7812 42.9385 11.2259 39.0973 9.43555 34.7354C7.64518 30.3734 6.75 25.8486 6.75 21.1611C6.75 20.5752 6.94531 20.0869 7.33594 19.6963C7.72656 19.3057 8.21484 19.1104 8.80078 19.1104H16.125C16.7109 19.1104 17.1992 19.3057 17.5898 19.6963C17.9805 20.0869 18.1758 20.5752 18.1758 21.1611C18.1758 23.7653 18.5664 26.2393 19.3477 28.583C19.6081 29.4294 19.4453 30.1455 18.8594 30.7314L14.2695 35.3213Z" fill="#656FE0"/>
</svg>
