<svg width="21" height="21" viewBox="0 0 21 21" fill="none" xmlns="http://www.w3.org/2000/svg">
<path d="M4.36798 10.5C4.36798 10.262 4.28398 10.0555 4.11598 9.8805C3.94798 9.7055 3.74498 9.618 3.50698 9.618H2.62498C2.38698 9.618 2.18048 9.7055 2.00548 9.8805C1.83048 10.0555 1.74298 10.262 1.74298 10.5C1.74298 10.738 1.83048 10.9445 2.00548 11.1195C2.18048 11.2945 2.38698 11.382 2.62498 11.382H3.50698C3.74498 11.382 3.94798 11.2945 4.11598 11.1195C4.28398 10.9445 4.36798 10.738 4.36798 10.5ZM4.93498 14.868L4.30498 15.498C4.13698 15.666 4.05298 15.8725 4.05298 16.1175C4.05298 16.3625 4.13698 16.569 4.30498 16.737C4.47298 16.905 4.67948 16.989 4.92448 16.989C5.16948 16.989 5.37598 16.905 5.54398 16.737L6.17398 16.107C6.31398 15.925 6.37698 15.7255 6.36298 15.5085C6.34898 15.2915 6.26148 15.1025 6.10048 14.9415C5.93948 14.7805 5.75048 14.693 5.53348 14.679C5.31648 14.665 5.11698 14.728 4.93498 14.868ZM10.5 4.368C10.738 4.368 10.9445 4.284 11.1195 4.116C11.2945 3.948 11.382 3.745 11.382 3.507V2.625C11.382 2.387 11.2945 2.1805 11.1195 2.0055C10.9445 1.8305 10.738 1.743 10.5 1.743C10.262 1.743 10.0555 1.8305 9.88048 2.0055C9.70548 2.1805 9.61798 2.387 9.61798 2.625V3.507C9.61798 3.745 9.70548 3.948 9.88048 4.116C10.0555 4.284 10.262 4.368 10.5 4.368ZM15.456 6.426C15.694 6.426 15.897 6.342 16.065 6.174L16.695 5.544C16.835 5.432 16.933 5.299 16.989 5.145C17.045 4.991 17.052 4.83 17.01 4.662C16.968 4.494 16.8875 4.3505 16.7685 4.2315C16.6495 4.1125 16.506 4.032 16.338 3.99C16.17 3.948 16.009 3.955 15.855 4.011C15.701 4.067 15.568 4.165 15.456 4.305L14.868 4.935C14.7 5.103 14.616 5.3095 14.616 5.5545C14.616 5.7995 14.7 6.0025 14.868 6.1635C15.036 6.3245 15.232 6.412 15.456 6.426ZM4.95598 6.174C5.12398 6.342 5.33048 6.426 5.57548 6.426C5.82048 6.426 6.02698 6.342 6.19498 6.174C6.36298 6.006 6.44698 5.7995 6.44698 5.5545C6.44698 5.3095 6.36298 5.103 6.19498 4.935L5.56498 4.305C5.39698 4.137 5.19048 4.0495 4.94548 4.0425C4.70048 4.0355 4.49048 4.1195 4.31548 4.2945C4.14048 4.4695 4.05298 4.6795 4.05298 4.9245C4.05298 5.1695 4.13698 5.376 4.30498 5.544L4.95598 6.174ZM18.375 9.618H17.493C17.255 9.618 17.0485 9.7055 16.8735 9.8805C16.6985 10.0555 16.611 10.262 16.611 10.5C16.611 10.738 16.6985 10.9445 16.8735 11.1195C17.0485 11.2945 17.255 11.382 17.493 11.382H18.375C18.613 11.382 18.8195 11.2945 18.9945 11.1195C19.1695 10.9445 19.257 10.738 19.257 10.5C19.257 10.262 19.1695 10.0555 18.9945 9.8805C18.8195 9.7055 18.613 9.618 18.375 9.618ZM16.065 14.868C15.897 14.77 15.715 14.735 15.519 14.763C15.323 14.791 15.155 14.875 15.015 15.015C14.875 15.155 14.791 15.323 14.763 15.519C14.735 15.715 14.77 15.897 14.868 16.065L15.498 16.695C15.666 16.863 15.8725 16.947 16.1175 16.947C16.3625 16.947 16.569 16.863 16.737 16.695C16.905 16.527 16.989 16.3205 16.989 16.0755C16.989 15.8305 16.905 15.624 16.737 15.456L16.065 14.868ZM10.5 5.691C9.63198 5.691 8.83048 5.908 8.09548 6.342C7.36048 6.776 6.77598 7.3605 6.34198 8.0955C5.90798 8.8305 5.69098 9.632 5.69098 10.5C5.69098 11.368 5.90798 12.1695 6.34198 12.9045C6.77598 13.6395 7.36048 14.224 8.09548 14.658C8.83048 15.092 9.63198 15.309 10.5 15.309C11.368 15.309 12.1695 15.092 12.9045 14.658C13.6395 14.224 14.224 13.6395 14.658 12.9045C15.092 12.1695 15.309 11.368 15.309 10.5C15.309 9.632 15.092 8.8305 14.658 8.0955C14.224 7.3605 13.6395 6.776 12.9045 6.342C12.1695 5.908 11.368 5.691 10.5 5.691ZM10.5 13.566C9.93998 13.566 9.42548 13.4295 8.95648 13.1565C8.48748 12.8835 8.11648 12.5125 7.84348 12.0435C7.57048 11.5745 7.43398 11.06 7.43398 10.5C7.43398 9.94 7.57048 9.4255 7.84348 8.9565C8.11648 8.4875 8.48748 8.1165 8.95648 7.8435C9.42548 7.5705 9.93998 7.434 10.5 7.434C11.06 7.434 11.5745 7.5705 12.0435 7.8435C12.5125 8.1165 12.8835 8.4875 13.1565 8.9565C13.4295 9.4255 13.566 9.94 13.566 10.5C13.566 11.06 13.4295 11.5745 13.1565 12.0435C12.8835 12.5125 12.5125 12.8835 12.0435 13.1565C11.5745 13.4295 11.06 13.566 10.5 13.566ZM10.5 16.632C10.262 16.632 10.0555 16.716 9.88048 16.884C9.70548 17.052 9.61798 17.255 9.61798 17.493V18.375C9.61798 18.613 9.70548 18.8195 9.88048 18.9945C10.0555 19.1695 10.262 19.257 10.5 19.257C10.738 19.257 10.9445 19.1695 11.1195 18.9945C11.2945 18.8195 11.382 18.613 11.382 18.375V17.493C11.382 17.255 11.2945 17.052 11.1195 16.884C10.9445 16.716 10.738 16.632 10.5 16.632Z" fill="white"/>
</svg>
