<svg width="14" height="13" viewBox="0 0 14 13" fill="none" xmlns="http://www.w3.org/2000/svg">
<path d="M10.464 2.13398H3.45602C3.18402 2.13398 2.93402 2.20198 2.70602 2.33798C2.47802 2.47398 2.29602 2.65598 2.16002 2.88398C2.02402 3.11198 1.95602 3.36198 1.95602 3.63398V8.62598C1.95602 8.89798 2.02402 9.14798 2.16002 9.37598C2.29602 9.60398 2.47802 9.78598 2.70602 9.92198C2.93402 10.058 3.18402 10.126 3.45602 10.126H10.464C10.736 10.126 10.986 10.058 11.214 9.92198C11.442 9.78598 11.624 9.60398 11.76 9.37598C11.896 9.14798 11.964 8.89798 11.964 8.62598V3.63398C11.964 3.36198 11.896 3.11198 11.76 2.88398C11.624 2.65598 11.442 2.47398 11.214 2.33798C10.986 2.20198 10.736 2.13398 10.464 2.13398ZM10.26 3.12998L7.32002 6.06998C7.22402 6.17398 7.10402 6.22598 6.96002 6.22598C6.81602 6.22598 6.69602 6.17398 6.60002 6.06998L3.66002 3.12998H10.26ZM10.956 8.62598C10.956 8.76198 10.908 8.87998 10.812 8.97998C10.716 9.07998 10.6 9.12998 10.464 9.12998H3.45602C3.32002 9.12998 3.20402 9.07998 3.10802 8.97998C3.01202 8.87998 2.96402 8.76198 2.96402 8.62598V3.83798L5.90402 6.77798C6.09602 6.96998 6.32002 7.09798 6.57602 7.16198C6.83202 7.22598 7.08802 7.22598 7.34402 7.16198C7.60002 7.09798 7.82402 6.96998 8.01602 6.77798L10.956 3.83798V8.62598Z" fill="white"/>
</svg>
