<svg width="18" height="18" viewBox="0 0 18 18" fill="none" xmlns="http://www.w3.org/2000/svg">
<path d="M9 1.2832C7.96875 1.2832 6.99609 1.47656 6.08203 1.86328C5.16797 2.26172 4.37109 2.79785 3.69141 3.47168C3.01172 4.14551 2.47852 4.93945 2.0918 5.85352C1.69336 6.76758 1.49414 7.74023 1.49414 8.77148C1.49414 9.70898 1.6582 10.5938 1.98633 11.4258C2.31445 12.2695 2.75977 13.0195 3.32227 13.6758C3.88477 14.332 4.55273 14.877 5.32617 15.3105C6.09961 15.7559 6.93164 16.0488 7.82227 16.1895V10.9512H5.92383V8.77148H7.82227V7.11914C7.82227 6.18164 8.08008 5.46094 8.5957 4.95703C9.11133 4.45313 9.80273 4.20117 10.6699 4.20117C11.0801 4.20117 11.4609 4.22754 11.8125 4.28027C12.1641 4.33301 12.3398 4.35938 12.3398 4.35938V6.1875H11.3906C10.9219 6.1875 10.6025 6.31055 10.4326 6.55664C10.2627 6.80273 10.1777 7.07227 10.1777 7.36523V8.77148H12.252L11.918 10.9512H10.1777V16.1895C11.0684 16.0488 11.9004 15.7559 12.6738 15.3105C13.4473 14.877 14.1182 14.332 14.6865 13.6758C15.2549 13.0195 15.6973 12.2695 16.0137 11.4258C16.3418 10.5938 16.5059 9.70898 16.5059 8.77148C16.5059 7.74023 16.3066 6.76758 15.9082 5.85352C15.5215 4.93945 14.9883 4.14551 14.3086 3.47168C13.6289 2.79785 12.832 2.26172 11.918 1.86328C11.0039 1.47656 10.0313 1.2832 9 1.2832Z" fill="#2D2E2E"/>
</svg>
