<svg width="34" height="35" viewBox="0 0 34 35" fill="none" xmlns="http://www.w3.org/2000/svg">
<path d="M25.5 19.6361V15.1481C25.5 13.7881 25.194 12.5074 24.582 11.3061C23.97 10.1047 23.1256 9.10174 22.049 8.29708C20.9723 7.49241 19.7653 6.97674 18.428 6.75008V5.22008C18.428 4.83474 18.2863 4.50041 18.003 4.21708C17.7196 3.93374 17.3853 3.79208 17 3.79208C16.6146 3.79208 16.2803 3.93374 15.997 4.21708C15.7136 4.50041 15.572 4.83474 15.572 5.22008V6.75008C14.2346 6.97674 13.0276 7.49241 11.951 8.29708C10.8743 9.10174 10.03 10.1047 9.41798 11.3061C8.80598 12.5074 8.49998 13.7881 8.49998 15.1481V19.6361C7.66131 19.9307 6.98131 20.4464 6.45998 21.1831C5.93865 21.9197 5.67798 22.7414 5.67798 23.6481V26.4701C5.67798 26.8554 5.81398 27.1897 6.08598 27.4731C6.35798 27.7564 6.68665 27.8981 7.07198 27.8981H11.526C11.866 29.1221 12.546 30.1251 13.566 30.9071C14.586 31.6891 15.7306 32.0801 17 32.0801C18.2693 32.0801 19.414 31.6891 20.434 30.9071C21.454 30.1251 22.134 29.1221 22.474 27.8981H26.928C27.3133 27.8981 27.642 27.7564 27.914 27.4731C28.186 27.1897 28.322 26.8554 28.322 26.4701V23.6481C28.322 22.7414 28.0613 21.9197 27.54 21.1831C27.0186 20.4464 26.3386 19.9307 25.5 19.6361ZM11.322 15.1481C11.322 14.1281 11.577 13.1817 12.087 12.3091C12.597 11.4364 13.2883 10.7451 14.161 10.2351C15.0336 9.72508 15.98 9.47008 17 9.47008C18.02 9.47008 18.9663 9.72508 19.839 10.2351C20.7116 10.7451 21.403 11.4364 21.913 12.3091C22.423 13.1817 22.678 14.1281 22.678 15.1481V19.3981H11.322V15.1481ZM17 29.2921C16.5013 29.2921 16.031 29.1674 15.589 28.9181C15.147 28.6687 14.8013 28.3287 14.552 27.8981H19.448C19.1986 28.3287 18.853 28.6687 18.411 28.9181C17.969 29.1674 17.4986 29.2921 17 29.2921ZM25.5 25.0421H8.49998V23.6481C8.49998 23.2627 8.64165 22.9284 8.92498 22.6451C9.20831 22.3617 9.54265 22.2201 9.92798 22.2201H24.072C24.4573 22.2201 24.7916 22.3617 25.075 22.6451C25.3583 22.9284 25.5 23.2627 25.5 23.6481V25.0421Z" fill="#17212A"/>
</svg>
