<svg width="24" height="49" viewBox="0 0 24 49" fill="none" xmlns="http://www.w3.org/2000/svg">
<path d="M22.0176 19.1104C21.2988 19.4398 20.5202 19.6644 19.6816 19.7842C20.5501 19.2451 21.1491 18.4814 21.4785 17.4932C20.6699 17.9723 19.8014 18.3018 18.873 18.4814C18.0645 17.613 17.0462 17.1787 15.8184 17.1787C14.7103 17.1787 13.752 17.583 12.9434 18.3916C12.1348 19.2002 11.7305 20.1735 11.7305 21.3115C11.7305 21.611 11.7754 21.9255 11.8652 22.2549C10.1882 22.165 8.6084 21.7383 7.12598 20.9746C5.64355 20.2109 4.39323 19.2002 3.375 17.9424C3.01562 18.5713 2.83594 19.2526 2.83594 19.9863C2.83594 20.7201 3.00065 21.3864 3.33008 21.9854C3.65951 22.5843 4.09375 23.0635 4.63281 23.4229C4.00391 23.4229 3.38997 23.2581 2.79102 22.9287V22.9736C2.79102 23.9619 3.10547 24.8304 3.73438 25.5791C4.36328 26.3278 5.14193 26.807 6.07031 27.0166C5.74089 27.1064 5.38151 27.1514 4.99219 27.1514C4.7526 27.1514 4.49805 27.1214 4.22852 27.0615C4.49805 27.9001 4.9847 28.5814 5.68848 29.1055C6.39225 29.6296 7.17839 29.9066 8.04688 29.9365C6.57943 31.1045 4.88737 31.6885 2.9707 31.6885C2.64128 31.6885 2.31185 31.6735 1.98242 31.6436C3.89909 32.8714 5.99544 33.4854 8.27148 33.4854C10.6673 33.4854 12.7936 32.8714 14.6504 31.6436C16.3574 30.5654 17.6901 29.098 18.6484 27.2412C19.5469 25.4743 19.9961 23.6624 19.9961 21.8057L19.9512 21.2666C20.7598 20.6976 21.4486 19.9788 22.0176 19.1104Z" fill="#656FE0"/>
</svg>
