<svg width="862" height="23" viewBox="0 0 862 23" fill="none" xmlns="http://www.w3.org/2000/svg">
<g clip-path="url(#clip0_1_113)">
<g clip-path="url(#clip1_1_113)">
<g clip-path="url(#clip2_1_113)">
<path d="M0.708344 12.9385H860.936V1.53394H0.708344V12.9385Z" fill="url(#paint0_linear_1_113)"/>
<path d="M0.708344 12.9385H860.936V1.53394H0.708344V12.9385Z" fill="url(#paint1_linear_1_113)"/>
<g style="mix-blend-mode:color">
<path d="M0.708344 12.9385H860.936V1.53394H0.708344V12.9385Z" fill="#D1F9FF" fill-opacity="0.25"/>
</g>
<path d="M0.708344 12.9386C0.708344 17.9567 17.7682 22.0255 41.8667 22.0255H819.776C843.876 22.0255 860.936 17.9567 860.936 12.9386H0.708344Z" fill="url(#paint2_linear_1_113)"/>
<g style="mix-blend-mode:color">
<path d="M0.708344 12.9386C0.708344 17.9567 17.7682 22.0255 41.8667 22.0255H819.776C843.876 22.0255 860.936 17.9567 860.936 12.9386H0.708344Z" fill="#D1F9FF" fill-opacity="0.25"/>
</g>
<path d="M60.9321 0.109985C46.4999 0.109985 0.708344 0.555778 0.708344 1.53503H860.936C860.936 0.555778 815.144 0.109985 800.712 0.109985H60.9321Z" fill="url(#paint3_linear_1_113)"/>
<g style="mix-blend-mode:color">
<path d="M60.9321 0.109985C46.4999 0.109985 0.708344 0.555778 0.708344 1.53503H860.936C860.936 0.555778 815.144 0.109985 800.712 0.109985H60.9321Z" fill="#D1F9FF" fill-opacity="0.25"/>
</g>
<path d="M479.953 10.1323H381.688C376.941 10.1323 373.093 6.28374 373.093 1.53717V1.53503H488.55C488.55 6.28267 484.701 10.1323 479.953 10.1323Z" fill="url(#paint4_linear_1_113)"/>
<path d="M479.953 10.1323H381.688C376.941 10.1323 373.093 6.28374 373.093 1.53717V1.53503H488.55C488.55 6.28267 484.701 10.1323 479.953 10.1323Z" fill="url(#paint5_linear_1_113)"/>
<g style="mix-blend-mode:color">
<path d="M479.953 10.1323H381.688C376.941 10.1323 373.093 6.28374 373.093 1.53717V1.53503H488.55C488.55 6.28267 484.701 10.1323 479.953 10.1323Z" fill="#D1F9FF" fill-opacity="0.25"/>
</g>
</g>
</g>
</g>
<defs>
<linearGradient id="paint0_linear_1_113" x1="0.708344" y1="1.53394" x2="36.3373" y2="2472.14" gradientUnits="userSpaceOnUse">
<stop stop-color="#F6F4F9"/>
<stop offset="1" stop-color="#CECBE4"/>
</linearGradient>
<linearGradient id="paint1_linear_1_113" x1="0.708344" y1="571.764" x2="86023.4" y2="571.764" gradientUnits="userSpaceOnUse">
<stop stop-color="#C8BFD5"/>
<stop offset="0.0103729" stop-color="#F1F1F9" stop-opacity="0.5"/>
<stop offset="0.0198047" stop-color="#E4E4F1" stop-opacity="0.5"/>
<stop offset="0.029171" stop-color="#DDDCED" stop-opacity="0.5"/>
<stop offset="0.180458" stop-color="#F4F2F8"/>
<stop offset="0.946236" stop-color="#CCCADD" stop-opacity="0.602961"/>
<stop offset="0.962197" stop-color="#E5E4F1" stop-opacity="0.570462"/>
<stop offset="0.977042" stop-color="#FFFEFF" stop-opacity="0.542792"/>
<stop offset="0.990161" stop-color="#F6F5FA" stop-opacity="0.51834"/>
<stop offset="1" stop-color="#A7A5CD" stop-opacity="0.5"/>
</linearGradient>
<linearGradient id="paint2_linear_1_113" x1="0.708344" y1="12.9386" x2="22.8382" y2="1938.88" gradientUnits="userSpaceOnUse">
<stop stop-color="#DDD8E6"/>
<stop offset="1" stop-color="#9992AF"/>
</linearGradient>
<linearGradient id="paint3_linear_1_113" x1="0.708344" y1="0.109985" x2="1.25267" y2="302.181" gradientUnits="userSpaceOnUse">
<stop stop-color="#EAEAEB"/>
<stop offset="1" stop-color="#9992AF"/>
</linearGradient>
<linearGradient id="paint4_linear_1_113" x1="373.093" y1="431.399" x2="12677.8" y2="431.399" gradientUnits="userSpaceOnUse">
<stop stop-color="#F6F4F9"/>
<stop offset="1" stop-color="#CECBE4"/>
</linearGradient>
<linearGradient id="paint5_linear_1_113" x1="373.093" y1="861.263" x2="11918.8" y2="861.263" gradientUnits="userSpaceOnUse">
<stop stop-color="white"/>
<stop offset="0.0726027" stop-color="#7D6D9A" stop-opacity="0.35"/>
<stop offset="0.158474" stop-color="white" stop-opacity="0"/>
<stop offset="0.810487" stop-color="#E3E0F4"/>
<stop offset="0.937819" stop-color="#EBE9F7"/>
<stop offset="1" stop-color="white"/>
</linearGradient>
<clipPath id="clip0_1_113">
<rect width="861.22" height="22.45" fill="white" transform="translate(0.390015 0.109985)"/>
</clipPath>
<clipPath id="clip1_1_113">
<rect width="861.22" height="22.45" fill="white" transform="translate(0.390015 0.109985)"/>
</clipPath>
<clipPath id="clip2_1_113">
<rect width="860.583" height="22.45" fill="white" transform="translate(0.708344 0.109985)"/>
</clipPath>
</defs>
</svg>
