<svg width="862" height="16" viewBox="0 0 862 16" fill="none" xmlns="http://www.w3.org/2000/svg">
<g clip-path="url(#clip0_1_56)">
<g clip-path="url(#clip1_1_56)">
<g clip-path="url(#clip2_1_56)">
<path d="M0.612518 15.075H861.035V9.01428H0.612518V15.075Z" fill="url(#paint0_linear_1_56)"/>
<path d="M0.612518 15.075H861.035V9.01428H0.612518V15.075Z" fill="url(#paint1_linear_1_56)"/>
<g style="mix-blend-mode:color">
<path d="M0.612518 15.075H861.035V9.01428H0.612518V15.075Z" fill="#D1F9FF" fill-opacity="0.25"/>
</g>
<path d="M0.612518 15.075H861.031V14.3607H0.612518V15.075Z" fill="url(#paint2_linear_1_56)"/>
<g style="mix-blend-mode:color">
<path d="M0.612518 15.075H861.031V14.3607H0.612518V15.075Z" fill="#00BBD8" fill-opacity="0.25"/>
</g>
<path d="M0.612518 9.01428C0.612518 3.99506 28.369 2.06392 52.4729 2.06392C220.631 1.35107 346.629 0.994639 430.465 0.994639C514.783 0.994639 641.018 1.35107 809.17 2.06392C833.275 2.06392 861.031 3.99506 861.031 9.01428H0.612518Z" fill="url(#paint3_linear_1_56)"/>
<g style="mix-blend-mode:color">
<path d="M0.612518 9.01428C0.612518 3.99506 28.369 2.06392 52.4729 2.06392C220.631 1.35107 346.629 0.994639 430.465 0.994639C514.783 0.994639 641.018 1.35107 809.17 2.06392C833.275 2.06392 861.031 3.99506 861.031 9.01428H0.612518Z" fill="#D1F9FF" fill-opacity="0.25"/>
</g>
<path d="M0.612518 9.01428C0.612518 3.99506 28.369 2.06392 52.4729 2.06392C220.631 1.35107 346.629 0.994639 430.465 0.994639C514.783 0.994639 641.018 1.35107 809.17 2.06392C833.275 2.06392 861.031 3.99506 861.031 9.01428H0.612518Z" fill="white" fill-opacity="0.34"/>
</g>
</g>
</g>
<defs>
<linearGradient id="paint0_linear_1_56" x1="0.612518" y1="9.01428" x2="10.6739" y2="1322.16" gradientUnits="userSpaceOnUse">
<stop stop-color="#F6F4F9"/>
<stop offset="1" stop-color="#CECBE4"/>
</linearGradient>
<linearGradient id="paint1_linear_1_56" x1="0.612518" y1="312.05" x2="86042.8" y2="312.05" gradientUnits="userSpaceOnUse">
<stop stop-color="#C8BFD5"/>
<stop offset="0.0103729" stop-color="#F1F1F9" stop-opacity="0.5"/>
<stop offset="0.0198047" stop-color="#E4E4F1" stop-opacity="0.5"/>
<stop offset="0.029171" stop-color="#DDDCED" stop-opacity="0.5"/>
<stop offset="0.180458" stop-color="#F4F2F8"/>
<stop offset="0.946236" stop-color="#CCCADD" stop-opacity="0.602961"/>
<stop offset="0.962197" stop-color="#E5E4F1" stop-opacity="0.570462"/>
<stop offset="0.977042" stop-color="#FFFEFF" stop-opacity="0.542792"/>
<stop offset="0.990161" stop-color="#F6F5FA" stop-opacity="0.51834"/>
<stop offset="1" stop-color="#A7A5CD" stop-opacity="0.5"/>
</linearGradient>
<linearGradient id="paint2_linear_1_56" x1="0.612518" y1="14.3607" x2="0.749243" y2="165.77" gradientUnits="userSpaceOnUse">
<stop stop-color="#DDD8E6"/>
<stop offset="1" stop-color="#9992AF"/>
</linearGradient>
<linearGradient id="paint3_linear_1_56" x1="0.612518" y1="9.01428" x2="17.846" y2="-1690.77" gradientUnits="userSpaceOnUse">
<stop stop-color="#DDD8E6"/>
<stop offset="1" stop-color="#9992AF"/>
</linearGradient>
<clipPath id="clip0_1_56">
<rect width="861.22" height="14.97" fill="white" transform="translate(0.390015 0.459961)"/>
</clipPath>
<clipPath id="clip1_1_56">
<rect width="861.22" height="14.97" fill="white" transform="translate(0.390015 0.459961)"/>
</clipPath>
<clipPath id="clip2_1_56">
<rect width="860.775" height="14.97" fill="white" transform="translate(0.612518 0.459961)"/>
</clipPath>
</defs>
</svg>
